<svg width="56" height="56" viewBox="0 0 56 56" fill="none" xmlns="http://www.w3.org/2000/svg">
<path fill-rule="evenodd" clip-rule="evenodd" d="M23.334 23.3332C23.334 20.7558 25.4233 18.6665 28.0007 18.6665C30.5781 18.6665 32.6673 20.7558 32.6673 23.3332C32.6673 25.9106 30.5781 27.9998 28.0007 27.9998C25.4233 27.9998 23.334 25.9106 23.334 23.3332Z" fill="white"/>
<path fill-rule="evenodd" clip-rule="evenodd" d="M28.0007 4.6665C17.6913 4.6665 9.33398 13.0239 9.33398 23.3332C9.33398 33.6425 17.6913 41.9998 28.0007 41.9998C38.31 41.9998 46.6673 33.6425 46.6673 23.3332C46.6673 13.0239 38.31 4.6665 28.0007 4.6665ZM28.0007 13.9998C22.846 13.9998 18.6673 18.1785 18.6673 23.3332C18.6673 28.4877 22.846 32.6665 28.0007 32.6665C33.1552 32.6665 37.334 28.4877 37.334 23.3332C37.334 18.1785 33.1552 13.9998 28.0007 13.9998Z" fill="white"/>
<path d="M16.9418 41.189L15.6338 42.9331C13.038 46.3942 15.5075 51.3331 19.8338 51.3331H36.1672C40.4934 51.3331 42.9628 46.3942 40.3672 42.9331L39.0589 41.189C35.8473 43.1821 32.0582 44.3331 28.0003 44.3331C23.9424 44.3331 20.1534 43.1821 16.9418 41.189Z" fill="white"/>
</svg>
