<svg width="45" height="45" viewBox="0 0 45 45" fill="none" xmlns="http://www.w3.org/2000/svg">
<g id="System">
<g id="tool_fill">
<path id="&#232;&#183;&#175;&#229;&#190;&#132;" fill-rule="evenodd" clip-rule="evenodd" d="M14.113 4.98302C18.454 3.86891 23.2627 5.00974 26.6673 8.41429C30.4794 12.2264 31.4544 17.7966 29.5998 22.509L38.2237 29.8062C40.9873 32.1447 41.162 36.346 38.6021 38.9059C36.0421 41.4659 31.841 41.2911 29.5025 38.5273L22.2072 29.9057C17.4933 31.764 11.9196 30.7898 8.10569 26.9758C4.70079 23.5708 3.56008 18.7615 4.67478 14.4202C5.04841 12.965 6.88559 12.5042 7.90222 13.6085L13.6104 19.809L17.9182 18.2261L19.5048 13.9142L13.3021 8.21134C12.1966 7.19499 12.6571 5.35665 14.113 4.98302Z" fill="#383838"/>
</g>
</g>
</svg>
