<svg width="33" height="33" viewBox="0 0 33 33" fill="none" xmlns="http://www.w3.org/2000/svg">
<g id="Group 2">
<path id="Vector" d="M21.9547 33C23.9387 33 25.6413 32.8958 27.0638 32.5796C28.5044 32.2595 29.7532 31.7014 30.7273 30.7273C31.7014 29.7532 32.2595 28.5044 32.5796 27.0638C32.8958 25.6413 33 23.9387 33 21.9547V17.1667C33 15.4177 31.5823 14 29.8333 14H17.1667C15.4177 14 14 15.4177 14 17.1667V29.8333C14 31.5823 15.4177 33 17.1667 33H21.9547Z" fill="#383838"/>
<path id="Vector_2" d="M0 22.0765C0 24.0909 0.109733 25.8196 0.442533 27.2638C0.779533 28.7266 1.36702 29.9945 2.39238 30.9835C3.41775 31.9724 4.73222 32.5391 6.24858 32.8642C6.3938 32.8952 6.53975 32.9244 6.6863 32.9518C8.49382 33.2886 10 31.813 10 30.0372V17.2152C10 15.4394 8.50762 14 6.66667 14H3.33333C1.49238 14 0 15.4394 0 17.2152V22.0765Z" fill="#383838"/>
<path id="Vector_3" d="M11.4109 0C9.30443 0 7.49694 0.109733 5.98661 0.442533C4.45721 0.779533 3.13144 1.36702 2.09726 2.39238C1.06308 3.41775 0.470545 4.73222 0.130648 6.24858C0.102743 6.3731 0.0764859 6.49802 0.0518257 6.6233C-0.308546 8.45445 1.26265 10 3.14435 10H29.9019C31.7588 10 33.3017 8.49382 32.9496 6.6863C32.921 6.53975 32.8904 6.3938 32.858 6.24858C32.5179 4.73222 31.9255 3.41775 30.8912 2.39238C29.857 1.36702 28.5312 0.779533 27.0019 0.442533C25.4915 0.109733 23.6841 0 21.5776 0H11.4109Z" fill="#383838"/>
</g>
</svg>
