<svg width="9" height="12" viewBox="0 0 9 12" fill="none" xmlns="http://www.w3.org/2000/svg">
<path id="trash" fill-rule="evenodd" clip-rule="evenodd" d="M2.42308 5.625C2.42308 5.418 2.57815 5.25 2.76923 5.25C2.96031 5.25 3.11538 5.418 3.11538 5.625V10.125C3.11538 10.3324 2.96031 10.5 2.76923 10.5C2.57815 10.5 2.42308 10.3324 2.42308 10.125V5.625ZM4.15385 5.625C4.15385 5.418 4.30892 5.25 4.5 5.25C4.69108 5.25 4.84615 5.418 4.84615 5.625V10.125C4.84615 10.3324 4.69108 10.5 4.5 10.5C4.30892 10.5 4.15385 10.3324 4.15385 10.125V5.625ZM5.88462 5.625C5.88462 5.418 6.03969 5.25 6.23077 5.25C6.42185 5.25 6.57692 5.418 6.57692 5.625V10.125C6.57692 10.3324 6.42185 10.5 6.23077 10.5C6.03969 10.5 5.88462 10.3324 5.88462 10.125V5.625ZM0.692308 10.5C0.692308 11.3284 1.31227 12 2.07692 12H6.92308C7.68773 12 8.30769 11.3284 8.30769 10.5V4.5H0.692308V10.5ZM5.53846 1.5H3.46154V1.125C3.46154 0.917625 3.61662 0.75 3.80769 0.75H5.19231C5.38338 0.75 5.53846 0.917625 5.53846 1.125V1.5ZM8.30769 1.5H6.23077V0.75C6.23077 0.336 5.92062 0 5.53846 0H3.46154C3.07938 0 2.76923 0.336 2.76923 0.75V1.5H0.692308C0.310154 1.5 0 1.836 0 2.25V3C0 3.414 0.309805 3.74962 0.691959 3.75H8.30839C8.6902 3.74962 9 3.414 9 3V2.25C9 1.836 8.68985 1.5 8.30769 1.5Z" fill="white"/>
</svg>
