<svg width="19" height="20" viewBox="0 0 19 20" fill="none" xmlns="http://www.w3.org/2000/svg">
<g id="Group">
<path id="Vector" d="M13.1752 4.86451C14.0073 4.86451 14.682 4.18949 14.682 3.35728C14.682 2.52503 14.0073 1.85034 13.1752 1.85034C12.3427 1.85034 11.668 2.52506 11.668 3.35728C11.668 4.18949 12.3427 4.86451 13.1752 4.86451Z" fill="white"/>
<path id="Vector_2" d="M18.905 9.18951L17.9059 7.68655C17.6631 7.33141 17.3411 7.03765 16.9659 6.82728L15.0062 5.72981C14.6471 5.56193 14.3754 5.45513 14.0343 5.50125L13.0966 5.62876C12.747 5.67607 12.4283 5.85427 12.2046 6.1271L10.4198 8.02647L8.78496 8.62927C8.47524 8.74338 8.30903 9.07967 8.40696 9.39473L8.41453 9.419C8.51075 9.72916 8.83001 9.91218 9.14614 9.83933L10.4784 9.53192C10.8106 9.4551 11.1263 9.31825 11.4088 9.12765L12.3354 8.50485L12.6626 10.9924C12.6866 11.1748 12.6499 11.3603 12.5579 11.5199L9.78364 16.3384C9.58574 16.6814 9.70289 17.1203 10.0453 17.32L10.0691 17.3339C10.3932 17.5227 10.8079 17.4316 11.0224 17.1245L14.1232 12.6887L15.0629 14.5641C15.1324 14.7028 15.2244 14.8288 15.3351 14.9368L17.4193 16.9749C17.6825 17.232 18.0986 17.2432 18.3748 17.0013L18.4082 16.9721C18.5499 16.848 18.6358 16.6725 18.647 16.4847C18.6582 16.2971 18.5939 16.1123 18.4679 15.9724L16.7082 14.0123L15.7522 10.552L15.7488 10.555L15.4744 7.84801L16.4435 8.28416L17.9929 9.91493C18.1878 10.1204 18.5034 10.1535 18.7365 9.99263L18.7523 9.98169C19.011 9.80382 19.0792 9.45113 18.905 9.18951Z" fill="white"/>
<path id="Vector_3" d="M4.79167 4.314L1.60635 2.13846H9.75011V0.895264H0V17.0566H1.60635L4.79167 19.2322V18.6106V17.0566H8.67617V15.8134H4.79167V4.314Z" fill="white"/>
</g>
</svg>
