<svg width="96" height="96" viewBox="0 0 96 96" fill="none" xmlns="http://www.w3.org/2000/svg">
<g id="worker-in-front-of-a-computer-monitor-svgrepo-com 1" clip-path="url(#clip0_313_1148)">
<g id="Group">
<g id="Group_2">
<path id="Vector" d="M75.627 49.62C80.5209 46.3259 83.8881 39.8354 83.8881 33.9886C83.8881 25.7401 77.1992 19.0508 68.9531 19.0508C63.0536 19.0508 57.969 22.475 55.5445 27.4372C56.5138 28.6408 57.1245 30.1511 57.1245 31.8173V44.1216C58.4998 46.3181 60.2463 48.2543 62.2803 49.6258C60.4747 50.0807 58.7636 50.7219 57.1245 51.485V62.0356C57.1245 65.8954 53.9838 69.0385 50.1211 69.0385H45.293L48.0799 71.8245V74.7029C62.2619 78.7809 95.9988 77.3083 95.9988 70.2778C96.0003 62.7494 87.3288 52.586 75.627 49.62ZM68.9531 76.9483L61.3743 69.3719L67.7549 53.9531H67.6848L65.209 51.1085C66.4086 51.5426 67.6557 51.7972 68.9531 51.7972C70.2452 51.7972 71.4923 51.5431 72.6871 51.1139L70.2138 53.9531H70.1504L76.5329 69.3719L68.9531 76.9483Z" fill="white"/>
<path id="Vector_2" d="M50.1227 27.0693H4.7449C2.1346 27.0693 0 29.2049 0 31.8142V62.0311C0 64.64 2.1346 66.776 4.7449 66.776H25.4976V70.8197H10.9803L9.04266 72.7559V74.6911H45.8298V72.7559L43.8927 70.8197H29.3715V66.776H50.1252C52.7355 66.776 54.8696 64.64 54.8696 62.0311V31.8142C54.8696 29.2049 52.7326 27.0693 50.1227 27.0693Z" fill="white"/>
</g>
</g>
</g>
<defs>
<clipPath id="clip0_313_1148">
<rect width="96" height="96" fill="white"/>
</clipPath>
</defs>
</svg>
