<svg width="1212" height="843" viewBox="0 0 1212 843" fill="none" xmlns="http://www.w3.org/2000/svg">
<path opacity="0.05" d="M797.363 421.514L881.414 275.897L1049.55 275.926L1133.64 421.557L1049.57 567.131L881.429 567.117L797.363 421.514ZM78.3599 421.514L162.397 275.897L330.528 275.926L414.622 421.557L330.571 567.146L162.425 567.131L78.3599 421.514ZM439.111 629.736L523.177 484.119L691.322 484.147L775.402 629.779L691.337 775.367L523.205 775.353L439.111 629.736ZM439.111 213.236L523.162 67.6186L691.308 67.6473L775.402 213.279L691.337 358.881L523.205 358.853L439.111 213.236ZM725.003 421.5L845.22 213.279L1085.73 213.307L1206 421.557L1085.77 629.779L845.263 629.75L725.003 421.5ZM5.99998 421.5L126.217 213.279L366.722 213.307L486.982 421.557L366.765 629.779L126.274 629.75L5.99998 421.5ZM366.765 629.721L486.982 421.5L727.474 421.529L847.748 629.779L727.531 838L487.025 837.971L366.765 629.721ZM366.766 213.221L486.982 4.99997L727.474 5.0287L847.748 213.279L727.531 421.5L487.026 421.471L366.766 213.221Z" stroke="white" stroke-width="10" stroke-linecap="square"/>
</svg>
