<svg width="34" height="45" viewBox="0 0 34 45" fill="none" xmlns="http://www.w3.org/2000/svg">
<g id="Group 24">
<path id="Vector" d="M15.75 18.0001C20.7206 18.0001 24.7501 13.9706 24.7501 9.00005C24.7501 4.02946 20.7206 0 15.75 0C10.7795 0 6.75 4.02946 6.75 9.00005C6.75 13.9706 10.7795 18.0001 15.75 18.0001Z" fill="white"/>
<path id="Vector_2" fill-rule="evenodd" clip-rule="evenodd" d="M25.875 45.0003C22.1627 45.0003 20.3065 45.0003 19.1534 43.847C18 42.6938 18 40.8376 18 37.1253C18 33.413 18 31.5567 19.1534 30.4036C20.3065 29.2502 22.1627 29.2502 25.875 29.2502C29.5873 29.2502 31.4436 29.2502 32.5967 30.4036C33.7501 31.5567 33.7501 33.413 33.7501 37.1253C33.7501 40.8376 33.7501 42.6938 32.5967 43.847C31.4436 45.0003 29.5873 45.0003 25.875 45.0003ZM27.1875 33.6252C27.1875 32.9004 26.6 32.3127 25.875 32.3127C25.1501 32.3127 24.5626 32.9004 24.5626 33.6252V35.8129H22.3749C21.6502 35.8129 21.0625 36.4003 21.0625 37.1253C21.0625 37.8502 21.6502 38.4377 22.3749 38.4377H24.5626V40.6254C24.5626 41.3501 25.1501 41.9378 25.875 41.9378C26.6 41.9378 27.1875 41.3501 27.1875 40.6254V38.4377H29.3752C30.0999 38.4377 30.6876 37.8502 30.6876 37.1253C30.6876 36.4003 30.0999 35.8129 29.3752 35.8129H27.1875V33.6252Z" fill="white"/>
<path id="Vector_3" d="M23.4332 25.8919C21.1605 25.1647 18.5401 24.7502 15.7501 24.7502C7.05156 24.7502 0 28.7798 0 33.7503C0 38.5667 6.62053 42.4992 14.9448 42.7389C14.8838 42.4547 14.8366 42.1725 14.7995 41.8956C14.6246 40.5957 14.6249 39.0074 14.6251 37.3188V36.9318C14.6249 35.2432 14.6246 33.6549 14.7995 32.3551C14.9939 30.9085 15.4587 29.3252 16.7669 28.017C18.0752 26.7089 19.6584 26.244 21.1049 26.0494C21.8069 25.9551 22.5928 25.9117 23.4332 25.8919Z" fill="white"/>
</g>
</svg>
