<svg width="33" height="33" viewBox="0 0 33 33" fill="none" xmlns="http://www.w3.org/2000/svg">
<g id="Vector">
<path id="Vector_2" d="M32.707 16.4062C32.707 7.34533 25.3617 0 16.3008 0C7.87397 0 0.930841 6.35331 0.000465393 14.5312H13.6492L11.225 12.1071C10.4928 11.3748 10.4928 10.1877 11.225 9.45542C11.9572 8.72319 13.1444 8.72319 13.8766 9.45542L19.5016 15.0804C20.2338 15.8126 20.2338 16.9999 19.5016 17.7321L13.8766 23.3571C13.1444 24.0893 11.9572 24.0893 11.225 23.3571C10.4928 22.6249 10.4928 21.4376 11.225 20.7054L13.6492 18.2812H0.000465393C0.930841 26.4592 7.87397 32.8125 16.3008 32.8125C25.3617 32.8125 32.707 25.4672 32.707 16.4062Z" fill="#383838"/>
</g>
</svg>
