<svg width="34" height="34" viewBox="0 0 34 34" fill="none" xmlns="http://www.w3.org/2000/svg">
<g id="Vector">
<path id="Vector_2" fill-rule="evenodd" clip-rule="evenodd" d="M0 14.25C0 6.37994 6.37994 0 14.25 0C22.1201 0 28.5 6.37994 28.5 14.25C28.5 17.373 27.4953 20.2614 25.7916 22.6096L32.8713 29.6894C33.4571 30.2751 33.4571 31.2249 32.8713 31.8106L31.8106 32.8713C31.2249 33.4571 30.2751 33.4571 29.6894 32.8713L22.6096 25.7916C20.2614 27.4953 17.373 28.5 14.25 28.5C6.37994 28.5 0 22.1201 0 14.25ZM14.25 4.5C8.86522 4.5 4.5 8.86522 4.5 14.25C4.5 19.6348 8.86522 24 14.25 24C19.6348 24 24 19.6348 24 14.25C24 8.86522 19.6348 4.5 14.25 4.5Z" fill="#383838"/>
</g>
</svg>
