<svg id="canvas" width="3157" height="2475" version="1.1" xmlns="http://www.w3.org/2000/svg">
			<defs id="defs"><pattern id="smallGrid" width="30" height="30" patternUnits="userSpaceOnUse"><path d="M 30 0 L 0 0 0 30" fill="none" stroke="gray" stroke-width="0.5"></path></pattern><pattern id="grid" width="300" height="300" patternUnits="userSpaceOnUse"><rect width="300" height="300" fill="url(#smallGrid)"></rect><path d="M 300 0 L 0 0 0 300" fill="none" stroke="gray" stroke-width="1"></path></pattern><pattern id="dots" width="30" height="30" x="-10" y="-10" patternUnits="userSpaceOnUse"><circle fill="gray" cx="10" cy="10" r="2"></circle></pattern></defs>
			<rect id="gridContainer" width="100%" height="100%" fill="url(#grid)"></rect><g id="drawingArea"><path id="llpo228p8w" stroke="#90468b" stroke-width="4" opacity="1" d="M 130 91 L 130 91 C 130 91 130 93.66666666666667 130 95 C 130 99.33333333333333 130 103.66666666666667 130 108 C 130 111.66666666666667 129.79660992805074 115.33897870491349 130 119 C 130.13074409009212 121.35339362165821 130.84321318860273 123.64819782904101 131 126 C 131.1773840280634 128.66076042095096 131 131.33333333333334 131 134 C 131 134.66666666666666 131 136 131 136"></path><path id="llpo2292zm" stroke="#90468b" stroke-width="4" opacity="1" d="M 122 87 L 122 87 C 122 87 122.67120202538929 86.94520033756488 123 87 C 124.67654728856982 87.27942454809497 126.30730703558889 87.84611882141718 128 88 C 129.9917864129354 88.18107149208504 132 88 134 88 C 136.33333333333334 88 138.66666666666666 88 141 88 C 142.33333333333334 88 145 88 145 88"></path><path id="llpo229gmo" stroke="#90468b" stroke-width="4" opacity="1" d="M 127 110 L 127 110 C 127 110 128.26911831724414 110.85382366344882 129 111 C 129.98058067569093 111.19611613513818 131.01005050633884 110.85857864376268 132 111 C 133.36055544213056 111.19436506316151 134.64433122119087 111.77405520353182 136 112 C 136.65759594922142 112.10959932487023 137.33333333333334 112 138 112 C 139 112 141 112 141 112"></path><path id="llpo2330gz" stroke="#90468b" stroke-width="4" opacity="1" d="M 177 104 L 177 104 C 177 104 177.11704114719612 104.68789027414365 177 105 C 176.10864117890424 107.37695685625533 174.9201028293416 109.63402129597876 174 112 C 172.58589175980634 115.63627833192656 171.1829692734198 119.28209656925212 170 123 C 168.8476488039088 126.62167518771516 168.1336193903174 130.3724179509843 167 134 C 166.464580001372 135.7133439956096 165 139 165 139"></path><path id="llpo2339pn" stroke="#90468b" stroke-width="4" opacity="1" d="M 178 101 L 178 101 C 178 101 178.6905077697049 100.87620310788196 179 101 C 180.38409133089567 101.55363653235827 182.10557280900008 101.80743041200012 183 103 C 185.2360679774998 105.98142396999972 186.45784747875499 109.60726445326098 188 113 C 189.7931460919718 116.94492140233795 191.94901229150923 120.7960491660369 193 125 C 193.97350522253384 128.89402089013535 193.5310150222377 133.01362768902047 194 137 C 194.19859193377957 138.68803143712628 195 142 195 142"></path><path id="llpo233jpy" stroke="#90468b" stroke-width="4" opacity="1" d="M 167 116 L 167 116 C 167 116 167.67949201745307 115.90842629070087 168 116 C 170.02707046622766 116.57916299035075 171.9458029930601 117.52595453686003 174 118 C 176.2966620733471 118.52999894000318 178.65592816770757 118.7532555966008 181 119 C 184.99181049015925 119.4201905779115 193 120 193 120"></path><path id="llpo236v3c" stroke="#90468b" stroke-width="4" opacity="1" d="M 241 101 L 241 101 C 241 101 240.32338083338178 100.91915479165455 240 101 C 238.97738001487016 101.25565499628246 237.94280904158205 101.52859547920897 237 102 C 235.2615460252793 102.86922698736035 233.7384539747207 104.13077301263965 232 105 C 231.05719095841795 105.47140452079103 229.90387690757774 105.45767385545336 229 106 C 226.5411889796109 107.47528661223346 224.2939534045447 109.27953494659147 222 111 C 218.95953219973563 113.28035085019827 215.45495823251062 115.09868572521472 213 118 C 211.63823418670162 119.60935959753445 211 121.89181489322108 211 124 C 211 125.49071198499986 211.87812490156887 127.01835928887277 213 128 C 214.6828126476467 129.47246106669084 217 130 219 131 C 220.33333333333334 131.66666666666666 221.60420287309276 132.4765760774098 223 133 C 224.2868613664883 133.4825730124331 225.63403746078578 133.84822638453176 227 134 C 228.6564728911227 134.18405254345808 230.38309583309112 134.4042260417272 232 134 C 234.4627950538208 133.38430123654481 236.59168108424154 131.8027729719195 239 131 C 240.6124515496597 130.46251615011343 244 130 244 130"></path><path id="llpo237efw" stroke="#90468b" stroke-width="4" opacity="1" d="M 266 114 L 266 114 C 266 114 265.1244294812758 116.6312757059662 265 118 C 264.7887499259008 120.3237508150913 264.6916179864543 122.68713489840718 265 125 C 265.3632833185399 127.72462488904917 266.07549967295796 130.41139908428227 267 133 C 267.75207104699524 135.10579893158666 268.7003118877249 137.18043664281487 270 139 C 270.43322937075834 139.6065211190617 271.3333333333333 140.33333333333334 272 140 C 273.6865480854231 139.15672595728844 274.78199962881183 137.4394549841315 276 136 C 278.4549582325106 133.09868572521472 280.7747935295966 130.08105511286624 283 127 C 285.1110162131856 124.07705447405064 287.38754845034026 121.22490309931942 289 118 C 289.7601169500661 116.47976609986782 289.720575451905 114.67654728856982 290 113 C 290.05479966243513 112.67120202538929 290 112 290 112"></path><path id="llpo237u910" stroke="#90468b" stroke-width="4" opacity="1" d="M 303 109 L 303 109 C 303 109 303.307147558417 112.3618796884428 303 114 C 302.29959580402755 117.73548904518654 301.0441009292804 121.34564674751874 300 125 C 299.04394240675924 128.34620157634262 299.4608038433722 132.53919615662775 297 135 C 294.82693253159914 137.1730674684009 298.31891812759574 128.9967602385788 299 126 C 299.985598104535 121.66336834004606 300.86821196481327 117.30079453370955 302 113 C 302.5365189833164 110.96122786339777 303.4886900074351 109.04523997025966 304 107 C 304.1616904166909 106.35323833323645 303.8383095833091 104.35323833323645 304 105 C 304.4917622040778 106.96704881631129 304.58229572167374 109.0159046779504 305 111 C 305.9161742106187 115.35182750043876 306.9621388221403 119.67557842558459 308 124 C 308.962221333218 128.00925555507504 309.62774750024755 132.1119512507013 311 136 C 311.64688603205013 137.8328437574753 312.785811076254 139.48226384531753 314 141 C 314.20823168251815 141.26028960314767 314.8285014148575 141.2858309752375 315 141 C 316.91741247211843 137.80431254646928 318.5938975204465 134.45134244981315 320 131 C 322.26727212213643 125.43487751839241 324.2188623879502 119.73922119438278 326 114 C 327.22208527026925 110.06216968468792 327.93762967596314 105.98388871513824 329 102 C 329.27160028124223 100.98149894534161 330 99 330 99"></path><path id="llpo238hg8" stroke="#90468b" stroke-width="4" opacity="1" d="M 334 100 L 334 100 C 334 100 334.84007339209455 107.32168801817473 335 111 C 335.1737488971052 114.99622463342024 335 119 335 123 C 335 125.66666666666667 335 133.66666666666666 335 131 C 335 127 334.85723387795036 122.9974514173902 335 119 C 335.19072625381006 113.65966489331772 335.46827801171355 108.31721988286438 336 103 C 336.1367547812218 101.63245218778214 336.38536370284714 100.22927259430571 337 99 C 337.42163702135576 98.15672595728843 338.3333333333333 97.66666666666667 339 97 C 339.3333333333333 96.66666666666667 339.54267043962 96.114332390095 340 96 C 340.97014250014536 95.75746437496366 342.4452998037748 95.16794970566215 343 96 C 345.40370085030935 99.605551275464 346.5825208898396 103.90506034842555 348 108 C 349.58760056734263 112.58640163898986 351.04816865675537 117.24084328377677 352 122 C 352.72205783796556 125.61028918982788 353.574220976393 129.363267149511 353 133 C 352.53500944502474 135.94494018151008 351.10818510677893 138.89181489322107 349 141 C 347.50928801500015 142.49071198499985 345.07950097964016 142.65341650339332 343 143 C 341.0272121523357 143.32879797461072 338.99007438041997 143.199007438042 337 143 C 335.6324521877821 142.86324521877822 334.3556687788091 142.22594479646818 333 142 C 332.34240405077855 141.89040067512977 331.5962847939999 142.29814239699996 331 142 C 330.701857603 141.8509288015 331 141 331 141"></path><path id="llpo2392at" stroke="#90468b" stroke-width="4" opacity="1" d="M 365 115 L 365 115 C 365 115 365 115.66666666666667 365 116 C 365 119 364.82383393414557 122.005176880475 365 125 C 365.157810692158 127.68278176668599 365.43690749362855 130.37223497026645 366 133 C 366.4417261042994 135.06138848673046 366.6117503929463 137.41342902051005 368 139 C 369.18205194654314 140.35091651033503 371.2095068377005 140.87210763126433 373 141 C 376.010790895451 141.21505649253223 379.48848804349007 141.67434130433995 382 140 C 385 138 386.76782786300674 134.3884733767314 388 131 C 389.49830940144193 126.87964914603467 389.4329362132088 122.34748903206578 390 118 C 390.43328090427275 114.6781797339087 391.2228359274013 111.3425389110198 391 108 C 390.8805947218407 106.20892082760982 390.1213619284271 104.40170241053387 389 103 C 388.5835366349637 102.47942079370465 387.52623481158423 102.59070625765672 387 103 C 384.39527057362665 105.02590066495708 382.25153535486555 107.58764069121548 380 110 C 377.58228583599436 112.59040803286318 375.403405464643 115.3963107466367 373 118 C 371.40127846604514 119.7319483284511 368 123 368 123"></path></g>
			<g id="cursors"><circle class="opcursor" id="cursor-me" cx="0" cy="0" r="2" fill="#ff851b" style="transform: translate(62px, 477px);"></circle></g>
		<rect id="selectionRect" stroke="black" stroke-width="1" vector-effect="non-scaling-stroke" fill="none" stroke-dasharray="5 5" opacity="1" x="0" y="0" width="0" height="0"></rect><image href="tools/hand/delete.svg" width="24" height="24" style="display: none;"></image><image href="tools/hand/duplicate.svg" width="24" height="24" style="display: none;"></image><image href="tools/hand/handle.svg" width="14" height="14" style="display: none;"></image><style>html, body, svg { padding: 0px; margin: 0px; font-family: "Liberation sans", sans-serif; },#canvas { transform-origin: 0px 0px; },#loadingMessage { font-size: 1.5em; background: linear-gradient(rgb(238, 238, 238), rgb(204, 204, 204)) rgb(238, 238, 238); padding: 20px; width: 40%; line-height: 50px; text-align: center; border-radius: 10px; position: fixed; top: 40%; left: 30%; z-index: 1; box-shadow: rgb(51, 51, 51) 0px 0px 2px; transition: all 1s ease 0s; },#loadingMessage.hidden { display: none; opacity: 0; z-index: -1; },#loadingMessage::after { content: "..."; },#menu::-webkit-scrollbar { display: none; },#menu { font-size: 16px; border-radius: 0px; overflow-y: scroll; position: fixed; margin-bottom: 30px; left: 0px; top: 0px; color: black; max-height: 100%; transition-duration: 1s; cursor: default; padding: 10px; },#menu.closed { border-radius: 3px; left: 10px; top: 10px; background-color: rgba(100, 200, 255, 0.7); width: 6vw; height: 2em; transition-duration: 1s; },#menu h2 { display: none; font-size: 4vh; text-align: center; letter-spacing: 0.5vw; text-shadow: white 0px 0px 5px; color: black; padding: 0px; margin: 0px; },#menu .tools { list-style-type: none; padding: 0px; },#settings { margin-bottom: 20px; },#menu .tool { position: relative; user-select: none; pointer-events: auto; white-space: nowrap; list-style-position: inside; border: 1px solid rgb(238, 238, 238); text-decoration: none; cursor: pointer; background: rgb(255, 255, 255); margin-top: 10px; height: 40px; line-height: 40px; border-radius: 0px; max-width: 40px; transition-duration: 0.2s; overflow: hidden; width: max-content; box-shadow: rgb(143, 162, 188) 0px 0px 3px inset; },#menu .tool:hover { max-width: 100%; },@media (hover: none), (pointer: coarse) {
  #menu .tool:hover { max-width: 40px; }
  #menu .tool:focus { max-width: 100%; }
  #menu { pointer-events: auto; }
  #menu:focus-within { pointer-events: none; }
},#menu .oneTouch:active { border-radius: 3px; background-color: rgb(238, 238, 255); },#menu .tool:active { box-shadow: rgb(221, 238, 255) 0px 0px 1px inset; background-color: rgb(238, 238, 255); },#menu .tool.curTool { box-shadow: rgb(0, 116, 217) 0px 0px 5px; background: linear-gradient(rgb(150, 225, 255), rgb(54, 162, 255)); },#menu .tool-icon { display: inline-block; text-align: center; width: 35px; height: 35px; margin: 2.5px; font-family: mono, monospace; overflow: hidden; },#menu img.tool-icon { pointer-events: none; },#menu .tool-icon > * { display: block; margin: auto; },#menu .tool-name { text-align: center; font-size: 23px; margin-right: 20px; margin-left: 20px; margin-bottom: 2.5px; display: inline-block; vertical-align: text-bottom; },#menu .tool-name.slider { display: inline-block; width: 150px; height: 30px; font-size: 0.9em; line-height: 15px; vertical-align: top; padding: 6px; },#menu .tool.hasSecondary .tool-icon { margin-top: 0px; margin-left: 0px; },#menu .tool .tool-icon.secondaryIcon { display: none; },#menu .tool.hasSecondary .tool-icon.secondaryIcon { display: block; position: absolute; bottom: 0px; left: 26px; width: 12px; height: 12px; },input { font-size: 16px; },#chooseColor { width: 100%; height: 100%; border: 0px; border-radius: 0px; color: black; display: block; margin: 0px; padding: 0px; },.colorPresets { margin-right: 20px; vertical-align: top; display: inline-block; },.colorPresetButton { width: 30px; height: 30px; border: 1px solid black; border-radius: 3px; display: inline-block; margin-right: 6px; padding: 0px; vertical-align: middle; },.rangeChooser { display: block; border: 0px; width: 100%; margin: 0px; background: transparent; },line { fill: none; stroke-linecap: round; stroke-linejoin: round; },path { fill: none; stroke-linecap: round; stroke-linejoin: round; },text { font-family: Arial, Helvetica, sans-serif; user-select: none; },circle.opcursor { pointer-events: none; transition: all 0.1s ease 0s; },#cursor-me { transition: all 0s ease 0s; },@media screen and (-ms-high-contrast: active), (-ms-high-contrast: none) {
  #chooseColor { color: transparent; }
  label.tool-name[for="chooseColor"] { line-height: 10px; }
}
path { fill: none; stroke-linecap: round; stroke-linejoin: round; }
line { fill: none; stroke-linecap: round; stroke-linejoin: round; }
#drawingArea rect { fill: none; }
#canvas ellipse { fill: none; }
#textToolInput { position: fixed; top: -1000px; left: 80px; width: 500px; },#textToolInput:focus { top: 5px; },text { font-family: Arial, Helvetica, sans-serif; user-select: none; }</style></svg>