<svg width="158" height="158" viewBox="0 0 158 158" fill="none" xmlns="http://www.w3.org/2000/svg">
<g id="Ellipse 8">
<mask id="path-1-inside-1_313_1136" fill="white">
<path d="M158 79C158 122.63 122.63 158 79 158C35.3695 158 0 122.63 0 79C0 35.3695 35.3695 0 79 0C122.63 0 158 35.3695 158 79ZM8.30689 79C8.30689 118.043 39.9573 149.693 79 149.693C118.043 149.693 149.693 118.043 149.693 79C149.693 39.9573 118.043 8.30689 79 8.30689C39.9573 8.30689 8.30689 39.9573 8.30689 79Z"/>
</mask>
<path d="M158 79C158 122.63 122.63 158 79 158C35.3695 158 0 122.63 0 79C0 35.3695 35.3695 0 79 0C122.63 0 158 35.3695 158 79ZM8.30689 79C8.30689 118.043 39.9573 149.693 79 149.693C118.043 149.693 149.693 118.043 149.693 79C149.693 39.9573 118.043 8.30689 79 8.30689C39.9573 8.30689 8.30689 39.9573 8.30689 79Z" stroke="url(#paint0_linear_313_1136)" stroke-width="10" mask="url(#path-1-inside-1_313_1136)"/>
</g>
<defs>
<linearGradient id="paint0_linear_313_1136" x1="79" y1="0" x2="79" y2="158" gradientUnits="userSpaceOnUse">
<stop stop-color="#0197F1"/>
<stop offset="1" stop-color="#014EA7"/>
</linearGradient>
</defs>
</svg>
