<svg width="224" height="225" viewBox="0 0 224 225" fill="none" xmlns="http://www.w3.org/2000/svg">
<g id="Group 1000004328">
<g id="Group 1">
<path id="Vector" d="M111.377 140.339C126.519 140.339 138.795 128.067 138.795 112.928C138.795 97.7894 126.519 85.5172 111.377 85.5172C96.2347 85.5172 83.9594 97.7894 83.9594 112.928C83.9594 128.067 96.2347 140.339 111.377 140.339Z" fill="#5C478B"/>
<path id="Vector_2" d="M111.376 151.474C132.67 151.474 149.932 134.216 149.932 112.928C149.932 91.6392 132.67 74.3813 111.376 74.3813C90.0815 74.3813 72.8193 91.6392 72.8193 112.928C72.8193 134.216 90.0815 151.474 111.376 151.474Z" stroke="#EBEBEB" stroke-width="4" stroke-miterlimit="10"/>
<path id="Vector_3" d="M133.226 61.9613C136.538 61.9613 139.223 59.2768 139.223 55.9652C139.223 52.6537 136.538 49.9691 133.226 49.9691C129.913 49.9691 127.228 52.6537 127.228 55.9652C127.228 59.2768 129.913 61.9613 133.226 61.9613Z" stroke="#EBEBEB" stroke-width="4" stroke-miterlimit="10"/>
<path id="Vector_4" d="M111.804 19.1317C116.536 19.1317 120.372 15.2967 120.372 10.5659C120.372 5.83507 116.536 2 111.804 2C107.072 2 103.236 5.83507 103.236 10.5659C103.236 15.2967 107.072 19.1317 111.804 19.1317Z" stroke="#EBEBEB" stroke-width="4" stroke-miterlimit="10"/>
<path id="Vector_5" d="M183.776 48.2556C188.508 48.2556 192.344 44.4206 192.344 39.6898C192.344 34.959 188.508 31.1239 183.776 31.1239C179.044 31.1239 175.208 34.959 175.208 39.6898C175.208 44.4206 179.044 48.2556 183.776 48.2556Z" stroke="#EBEBEB" stroke-width="4" stroke-miterlimit="10"/>
<path id="Vector_6" d="M212.908 120.209C217.64 120.209 221.476 116.374 221.476 111.643C221.476 106.912 217.64 103.077 212.908 103.077C208.176 103.077 204.34 106.912 204.34 111.643C204.34 116.374 208.176 120.209 212.908 120.209Z" stroke="#EBEBEB" stroke-width="4" stroke-miterlimit="10"/>
<path id="Vector_7" d="M185.489 192.163C190.221 192.163 194.057 188.327 194.057 183.597C194.057 178.866 190.221 175.031 185.489 175.031C180.757 175.031 176.921 178.866 176.921 183.597C176.921 188.327 180.757 192.163 185.489 192.163Z" stroke="#EBEBEB" stroke-width="4" stroke-miterlimit="10"/>
<path id="Vector_8" d="M111.804 223C116.536 223 120.372 219.165 120.372 214.434C120.372 209.703 116.536 205.868 111.804 205.868C107.072 205.868 103.236 209.703 103.236 214.434C103.236 219.165 107.072 223 111.804 223Z" stroke="#EBEBEB" stroke-width="4" stroke-miterlimit="10"/>
<path id="Vector_9" d="M167.496 92.7982C170.808 92.7982 173.494 90.1137 173.494 86.8021C173.494 83.4906 170.808 80.806 167.496 80.806C164.184 80.806 161.498 83.4906 161.498 86.8021C161.498 90.1137 164.184 92.7982 167.496 92.7982Z" stroke="#EBEBEB" stroke-width="4" stroke-miterlimit="10"/>
<path id="Vector_10" d="M167.496 142.48C170.808 142.48 173.494 139.796 173.494 136.484C173.494 133.173 170.808 130.488 167.496 130.488C164.184 130.488 161.498 133.173 161.498 136.484C161.498 139.796 164.184 142.48 167.496 142.48Z" stroke="#EBEBEB" stroke-width="4" stroke-miterlimit="10"/>
<path id="Vector_11" d="M133.226 175.031C136.538 175.031 139.223 172.346 139.223 169.034C139.223 165.723 136.538 163.038 133.226 163.038C129.913 163.038 127.228 165.723 127.228 169.034C127.228 172.346 129.913 175.031 133.226 175.031Z" stroke="#EBEBEB" stroke-width="4" stroke-miterlimit="10"/>
<path id="Vector_12" d="M110.945 74.8102V19.9886" stroke="#EBEBEB" stroke-width="4" stroke-miterlimit="10"/>
<path id="Vector_13" d="M111.804 206.724V151.903" stroke="#EBEBEB" stroke-width="4" stroke-miterlimit="10"/>
<path id="Vector_14" d="M205.197 111.643H150.361" stroke="#EBEBEB" stroke-width="4" stroke-miterlimit="10"/>
<path id="Vector_15" d="M130.344 61.1385L124.963 76.4886" stroke="#EBEBEB" stroke-width="4" stroke-miterlimit="10"/>
<path id="Vector_16" d="M161.327 90.2969L146.504 95.3679" stroke="#EBEBEB" stroke-width="4" stroke-miterlimit="10"/>
<path id="Vector_17" d="M162.529 133.759L147.621 127.215" stroke="#EBEBEB" stroke-width="4" stroke-miterlimit="10"/>
<path id="Vector_18" d="M130.245 163.895L125.07 148.477" stroke="#EBEBEB" stroke-width="4" stroke-miterlimit="10"/>
<path id="Vector_19" d="M178.309 46.0116L139.221 85.9457" stroke="#EBEBEB" stroke-width="4" stroke-miterlimit="10"/>
<path id="Vector_20" d="M178.309 178.989L139.547 140.237" stroke="#EBEBEB" stroke-width="4" stroke-miterlimit="10"/>
</g>
<g id="Group 1000004327">
<path id="Vector_21" d="M112.099 84.6611C96.9568 84.6611 84.6815 96.9333 84.6815 112.072C84.6815 127.21 96.9568 139.483 112.099 139.483C127.242 139.483 139.517 127.21 139.517 112.072C139.517 96.9333 127.242 84.6611 112.099 84.6611Z" fill="#5C478B"/>
<path id="Vector_22" d="M112.101 73.5258C90.8068 73.5258 73.5446 90.7836 73.5446 112.072C73.5446 133.361 90.8068 150.619 112.101 150.619C133.395 150.619 150.657 133.361 150.657 112.072C150.657 90.7836 133.395 73.5258 112.101 73.5258Z" stroke="#EBEBEB" stroke-width="4" stroke-miterlimit="10"/>
<path id="Vector_23" d="M90.2508 163.039C86.9384 163.039 84.2532 165.723 84.2532 169.035C84.2532 172.346 86.9384 175.031 90.2508 175.031C93.5632 175.031 96.2484 172.346 96.2484 169.035C96.2484 165.723 93.5632 163.039 90.2508 163.039Z" stroke="#EBEBEB" stroke-width="4" stroke-miterlimit="10"/>
<path id="Vector_24" d="M111.672 205.868C106.94 205.868 103.104 209.703 103.104 214.434C103.104 219.165 106.94 223 111.672 223C116.404 223 120.24 219.165 120.24 214.434C120.24 209.703 116.404 205.868 111.672 205.868Z" stroke="#EBEBEB" stroke-width="4" stroke-miterlimit="10"/>
<path id="Vector_25" d="M39.7001 176.744C34.9681 176.744 31.1321 180.579 31.1321 185.31C31.1321 190.041 34.9681 193.876 39.7001 193.876C44.4321 193.876 48.2682 190.041 48.2682 185.31C48.2682 180.579 44.4321 176.744 39.7001 176.744Z" stroke="#EBEBEB" stroke-width="4" stroke-miterlimit="10"/>
<path id="Vector_26" d="M10.5681 104.791C5.83607 104.791 2.00002 108.626 2.00002 113.357C2.00002 118.088 5.83606 121.923 10.5681 121.923C15.3001 121.923 19.1361 118.088 19.1361 113.357C19.1361 108.626 15.3001 104.791 10.5681 104.791Z" stroke="#EBEBEB" stroke-width="4" stroke-miterlimit="10"/>
<path id="Vector_27" d="M37.987 32.8373C33.255 32.8373 29.419 36.6723 29.419 41.4031C29.419 46.1339 33.255 49.969 37.987 49.969C42.719 49.969 46.5551 46.1339 46.5551 41.4031C46.5551 36.6723 42.719 32.8373 37.987 32.8373Z" stroke="#EBEBEB" stroke-width="4" stroke-miterlimit="10"/>
<path id="Vector_28" d="M111.672 1.99985C106.94 1.99985 103.104 5.83492 103.104 10.5657C103.104 15.2965 106.94 19.1316 111.672 19.1316C116.404 19.1316 120.24 15.2965 120.24 10.5657C120.24 5.83492 116.404 1.99985 111.672 1.99985Z" stroke="#EBEBEB" stroke-width="4" stroke-miterlimit="10"/>
<path id="Vector_29" d="M55.9804 132.202C52.668 132.202 49.9828 134.886 49.9828 138.198C49.9828 141.509 52.668 144.194 55.9804 144.194C59.2928 144.194 61.978 141.509 61.978 138.198C61.978 134.886 59.2928 132.202 55.9804 132.202Z" stroke="#EBEBEB" stroke-width="4" stroke-miterlimit="10"/>
<path id="Vector_30" d="M55.9806 82.5196C52.6682 82.5196 49.983 85.2042 49.983 88.5157C49.983 91.8273 52.6682 94.5118 55.9806 94.5118C59.293 94.5118 61.9783 91.8273 61.9783 88.5157C61.9783 85.2042 59.293 82.5196 55.9806 82.5196Z" stroke="#EBEBEB" stroke-width="4" stroke-miterlimit="10"/>
<path id="Vector_31" d="M90.2508 49.9693C86.9384 49.9693 84.2532 52.6539 84.2532 55.9654C84.2532 59.277 86.9384 61.9615 90.2508 61.9615C93.5632 61.9615 96.2484 59.277 96.2484 55.9654C96.2484 52.6539 93.5632 49.9693 90.2508 49.9693Z" stroke="#EBEBEB" stroke-width="4" stroke-miterlimit="10"/>
<path id="Vector_32" d="M112.532 150.19L112.532 205.011" stroke="#EBEBEB" stroke-width="4" stroke-miterlimit="10"/>
<path id="Vector_33" d="M111.672 18.2758L111.672 73.0974" stroke="#EBEBEB" stroke-width="4" stroke-miterlimit="10"/>
<path id="Vector_34" d="M18.2794 113.357L73.1149 113.357" stroke="#EBEBEB" stroke-width="4" stroke-miterlimit="10"/>
<path id="Vector_35" d="M93.1322 163.861L98.5129 148.511" stroke="#EBEBEB" stroke-width="4" stroke-miterlimit="10"/>
<path id="Vector_36" d="M62.1492 134.703L76.9719 129.632" stroke="#EBEBEB" stroke-width="4" stroke-miterlimit="10"/>
<path id="Vector_37" d="M60.9473 91.2405L75.8557 97.7848" stroke="#EBEBEB" stroke-width="4" stroke-miterlimit="10"/>
<path id="Vector_38" d="M93.2315 61.1046L98.4066 76.5232" stroke="#EBEBEB" stroke-width="4" stroke-miterlimit="10"/>
<path id="Vector_39" d="M45.1673 178.988L84.2548 139.054" stroke="#EBEBEB" stroke-width="4" stroke-miterlimit="10"/>
<path id="Vector_40" d="M45.1675 46.0113L83.9293 84.7633" stroke="#EBEBEB" stroke-width="4" stroke-miterlimit="10"/>
</g>
</g>
</svg>
